<?xml version="1.0" encoding="UTF-8"?>
<svg xmlns="http://www.w3.org/2000/svg" xmlns:xlink="http://www.w3.org/1999/xlink"
     width="6928.203230275509" height="6928.203230275509" viewBox="-3464.1016151377544 -3464.1016151377544 6928.203230275509 6928.203230275509">
<defs>
<g id="d0">
<path d="M2000.0,0.0 L-999.9999999999995,1732.0508075688774 L-999.9999999999995,1732.0508075688774 L-1000.0000000000009,-1732.050807568877 L-1000.0000000000009,-1732.050807568877 L2000.0,0.0 Z" fill="none" stroke="black" stroke-width="2" opacity="0.5" />
<path d="M1895.0,60.6217782649107 L-999.9999999999995,1610.807251039056 L-999.9999999999995,1610.807251039056 L-895.0000000000009,-1671.4290293039662 L-895.0000000000009,-1671.4290293039662 L1895.0,60.6217782649107 Z" fill="none" stroke="white" stroke-width="2" opacity="0.5" />
<path d="M1895.0,60.6217782649107 L-999.9999999999995,1610.807251039056 L-999.9999999999995,1610.807251039056 L-895.0000000000009,-1671.4290293039662 L-895.0000000000009,-1671.4290293039662 L1895.0,60.6217782649107 Z" fill="none" stroke="black" stroke-width="2" opacity="0.5" />
<path d="M1793.675,114.87826981200577 L-996.3249999999996,1495.9289812270501 L-996.3249999999996,1495.9289812270501 L-797.3500000000009,-1610.8072510390555 L-797.3500000000009,-1610.8072510390555 L1793.675,114.87826981200577 Z" fill="none" stroke="white" stroke-width="2" opacity="0.5" />
<path d="M1793.675,114.87826981200577 L-996.3249999999996,1495.9289812270501 L-996.3249999999996,1495.9289812270501 L-797.3500000000009,-1610.8072510390555 L-797.3500000000009,-1610.8072510390555 L1793.675,114.87826981200577 Z" fill="none" stroke="black" stroke-width="2" opacity="0.5" />
<path d="M1696.0249999999999,163.21504471153236 L-989.3608749999996,1387.1932130977364 L-989.3608749999996,1387.1932130977364 L-706.6641250000009,-1550.4082578092684 L-706.6641250000009,-1550.4082578092684 L1696.0249999999999,163.21504471153236 Z" fill="none" stroke="white" stroke-width="2" opacity="0.5" />
<path d="M1696.0249999999999,163.21504471153236 L-989.3608749999996,1387.1932130977364 L-989.3608749999996,1387.1932130977364 L-706.6641250000009,-1550.4082578092684 L-706.6641250000009,-1550.4082578092684 L1696.0249999999999,163.21504471153236 Z" fill="none" stroke="black" stroke-width="2" opacity="0.5" />
<path d="M1602.0364943749998,206.0542806050495 L-979.4664887499997,1284.377161615991 L-979.4664887499997,1284.377161615991 L-622.5700056250009,-1490.4314422210405 L-622.5700056250009,-1490.4314422210405 L1602.0364943749998,206.0542806050495 Z" fill="none" stroke="white" stroke-width="2" opacity="0.5" />
<path d="M1602.0364943749998,206.0542806050495 L-979.4664887499997,1284.377161615991 L-979.4664887499997,1284.377161615991 L-622.5700056250009,-1490.4314422210405 L-622.5700056250009,-1490.4314422210405 L1602.0364943749998,206.0542806050495 Z" fill="none" stroke="black" stroke-width="2" opacity="0.5" />
<path d="M1511.6838899656248,243.79558144043247 L-966.9751118406248,1187.258860481695 L-966.9751118406248,1187.258860481695 L-544.7087781250009,-1431.0544419221274 L-544.7087781250009,-1431.0544419221274 L1511.6838899656248,243.79558144043247 Z" fill="none" stroke="white" stroke-width="2" opacity="0.5" />
<path d="M1511.6838899656248,243.79558144043247 L-966.9751118406248,1187.258860481695 L-966.9751118406248,1187.258860481695 L-544.7087781250009,-1431.0544419221274 L-544.7087781250009,-1431.0544419221274 L1511.6838899656248,243.79558144043247 Z" fill="none" stroke="black" stroke-width="2" opacity="0.5" />
<path d="M1424.930824902406,276.8167962068767 L-952.195790160578,1095.6178948975612 L-952.195790160578,1095.6178948975612 L-472.735034741829,-1372.4346911044377 L-472.735034741829,-1372.4346911044377 L1424.930824902406,276.8167962068767 Z" fill="none" stroke="white" stroke-width="2" opacity="0.5" />
<path d="M1424.930824902406,276.8167962068767 L-952.195790160578,1095.6178948975612 L-952.195790160578,1095.6178948975612 L-472.735034741829,-1372.4346911044377 L-472.735034741829,-1372.4346911044377 L1424.930824902406,276.8167962068767 Z" fill="none" stroke="black" stroke-width="2" opacity="0.5" />
<path d="M1341.7313933752014,305.47483466105064 L-935.4146637209218,1009.2360543874912 L-935.4146637209218,1009.2360543874912 L-406.3167296542808,-1314.7108890485417 L-406.3167296542808,-1314.7108890485417 L1341.7313933752014,305.47483466105064 Z" fill="none" stroke="white" stroke-width="2" opacity="0.5" />
<path d="M1341.7313933752014,305.47483466105064 L-935.4146637209218,1009.2360543874912 L-935.4146637209218,1009.2360543874912 L-406.3167296542808,-1314.7108890485417 L-406.3167296542808,-1314.7108890485417 L1341.7313933752014,305.47483466105064 Z" fill="none" stroke="black" stroke-width="2" opacity="0.5" />
<path d="M1262.0312813768371,330.10647735147603 L-916.8962360285893,927.89791136723 L-916.8962360285893,927.89791136723 L-345.1350453482489,-1258.004388718706 L-345.1350453482489,-1258.004388718706 L1262.0312813768371,330.10647735147603 Z" fill="none" stroke="white" stroke-width="2" opacity="0.5" />
<path d="M1262.0312813768371,330.10647735147603 L-916.8962360285893,927.89791136723 L-916.8962360285893,927.89791136723 L-345.1350453482489,-1258.004388718706 L-345.1350453482489,-1258.004388718706 L1262.0312813768371,330.10647735147603 Z" fill="none" stroke="black" stroke-width="2" opacity="0.5" />
<path d="M1185.7688182676472,351.0291775420274 L-896.8845943547774,851.3913308642223 L-896.8845943547774,851.3913308642223 L-288.8842239128709,-1202.4205084062496 L-288.8842239128709,-1202.4205084062496 L1185.7688182676472,351.0291775420274 Z" fill="none" stroke="white" stroke-width="2" opacity="0.5" />
<path d="M1185.7688182676472,351.0291775420274 L-896.8845943547774,851.3913308642223 L-896.8845943547774,851.3913308642223 L-288.8842239128709,-1202.4205084062496 L-288.8842239128709,-1202.4205084062496 L1185.7688182676472,351.0291775420274 Z" fill="none" stroke="black" stroke-width="2" opacity="0.5" />
<path d="M1112.8759488258625,368.54185290830424 L-875.6045813893106,779.5079164897558 L-875.6045813893106,779.5079164897558 L-237.27136743655274,-1148.0497693980599 L-237.27136743655274,-1148.0497693980599 L1112.8759488258625,368.54185290830424 Z" fill="none" stroke="white" stroke-width="2" opacity="0.5" />
<path d="M1112.8759488258625,368.54185290830424 L-875.6045813893106,779.5079164897558 L-875.6045813893106,779.5079164897558 L-237.27136743655274,-1148.0497693980599 L-237.27136743655274,-1148.0497693980599 L1112.8759488258625,368.54185290830424 Z" fill="none" stroke="black" stroke-width="2" opacity="0.5" />
<path d="M1043.2791302683313,382.92566513365506 L-853.2629189009641,712.0433974836822 L-853.2629189009641,712.0433974836822 L-190.0162113673682,-1094.9690626173372 L-190.0162113673682,-1094.9690626173372 L1043.2791302683313,382.92566513365506 Z" fill="none" stroke="white" stroke-width="2" opacity="0.5" />
<path d="M1043.2791302683313,382.92566513365506 L-853.2629189009641,712.0433974836822 L-853.2629189009641,712.0433974836822 L-190.0162113673682,-1094.9690626173372 L-190.0162113673682,-1094.9690626173372 L1043.2791302683313,382.92566513365506 Z" fill="none" stroke="black" stroke-width="2" opacity="0.5" />
<path d="M976.9001585474059,394.44478576590603 L-830.0492841372883,648.7979613801465 L-830.0492841372883,648.7979613801465 L-146.8508744101187,-1043.2427471460524 L-146.8508744101187,-1043.2427471460524 L976.9001585474059,394.44478576590603 Z" fill="none" stroke="white" stroke-width="2" opacity="0.5" />
<path d="M976.9001585474059,394.44478576590603 L-830.0492841372883,648.7979613801465 L-830.0492841372883,648.7979613801465 L-146.8508744101187,-1043.2427471460524 L-146.8508744101187,-1043.2427471460524 L976.9001585474059,394.44478576590603 Z" fill="none" stroke="black" stroke-width="2" opacity="0.5" />
<path d="M913.6569280534416,403.34714691240447 L-806.1373397968373,589.5765365817296 L-806.1373397968373,589.5765365817296 L-107.51958825660535,-992.9236834941338 L-107.51958825660535,-992.9236834941338 L913.6569280534416,403.34714691240447 Z" fill="none" stroke="white" stroke-width="2" opacity="0.5" />
<path d="M913.6569280534416,403.34714691240447 L-806.1373397968373,589.5765365817296 L-806.1373397968373,589.5765365817296 L-107.51958825660535,-992.9236834941338 L-107.51958825660535,-992.9236834941338 L913.6569280534416,403.34714691240447 Z" fill="none" stroke="black" stroke-width="2" opacity="0.5" />
<path d="M853.4641286786818,409.8651755508308 L-781.6857184929291,534.1890288790744 L-781.6857184929291,534.1890288790744 L-71.7784101857537,-944.054204429905 L-71.7784101857537,-944.054204429905 L853.4641286786818,409.8651755508308 Z" fill="none" stroke="white" stroke-width="2" opacity="0.5" />
<path d="M853.4641286786818,409.8651755508308 L-781.6857184929291,534.1890288790744 L-781.6857184929291,534.1890288790744 L-71.7784101857537,-944.054204429905 L-71.7784101857537,-944.054204429905 L853.4641286786818,409.8651755508308 Z" fill="none" stroke="black" stroke-width="2" opacity="0.5" />
<path d="M796.2338840276755,414.21651041731934 L-756.838962702178,482.45051571326013 L-756.838962702178,482.45051571326013 L-39.39492132549845,-896.6670261305792 L-39.39492132549845,-896.6670261305792 L796.2338840276755,414.21651041731934 Z" fill="none" stroke="white" stroke-width="2" opacity="0.5" />
<path d="M796.2338840276755,414.21651041731934 L-756.838962702178,482.45051571326013 L-756.838962702178,482.45051571326013 L-39.39492132549845,-896.6670261305792 L-39.39492132549845,-896.6670261305792 L796.2338840276755,414.21651041731934 Z" fill="none" stroke="black" stroke-width="2" opacity="0.5" />
<path d="M741.8763343921306,416.60470060267727 L-731.7284212539943,434.18140174872576 L-731.7284212539943,434.18140174872576 L-10.147913138137369,-850.7861023514027 L-10.147913138137369,-850.7861023514027 L741.8763343921306,416.60470060267727 Z" fill="none" stroke="white" stroke-width="2" opacity="0.5" />
<path d="M741.8763343921306,416.60470060267727 L-731.7284212539943,434.18140174872576 L-731.7284212539943,434.18140174872576 L-10.147913138137369,-850.7861023514027 L-10.147913138137369,-850.7861023514027 L741.8763343921306,416.60470060267727 Z" fill="none" stroke="black" stroke-width="2" opacity="0.5" />
<path d="M690.3001679445163,417.219885142789 L-706.4731034699392,389.20753910522126 L-706.4731034699392,389.20753910522126 L16.172935525422016,-806.42742424801 L16.172935525422016,-806.42742424801 L690.3001679445163,417.219885142789 Z" fill="none" stroke="white" stroke-width="2" opacity="0.5" />
<path d="M690.3001679445163,417.219885142789 L-706.4731034699392,389.20753910522126 L-706.4731034699392,389.20753910522126 L16.172935525422016,-806.42742424801 L16.172935525422016,-806.42742424801 L690.3001679445163,417.219885142789 Z" fill="none" stroke="black" stroke-width="2" opacity="0.5" />
<path d="M641.4131034450103,416.2394530314741 L-681.1804921051016,347.3603153878582 L-681.1804921051016,347.3603153878582 L39.76738866009031,-763.599768419332 L39.76738866009031,-763.599768419332 L641.4131034450103,416.2394530314741 Z" fill="none" stroke="white" stroke-width="2" opacity="0.5" />
<path d="M641.4131034450103,416.2394530314741 L-681.1804921051016,347.3603153878582 L-681.1804921051016,347.3603153878582 L39.76738866009031,-763.599768419332 L39.76738866009031,-763.599768419332 L641.4131034450103,416.2394530314741 Z" fill="none" stroke="black" stroke-width="2" opacity="0.5" />
<path d="M595.1223276007563,413.82868321394756 L-655.9473162783199,308.4767124546065 L-655.9473162783199,308.4767124546065 L60.82498867756251,-722.3053956685537 L60.82498867756251,-722.3053956685537 L595.1223276007563,413.82868321394756 Z" fill="none" stroke="white" stroke-width="2" opacity="0.5" />
<path d="M595.1223276007563,413.82868321394756 L-655.9473162783199,308.4767124546065 L-655.9473162783199,308.4767124546065 L60.82498867756251,-722.3053956685537 L60.82498867756251,-722.3053956685537 L595.1223276007563,413.82868321394756 Z" fill="none" stroke="black" stroke-width="2" opacity="0.5" />
<path d="M551.3348900649886,410.1413642373706 L-630.8602856048641,272.3993386702959 L-630.8602856048641,272.3993386702959 L79.5253955398743,-682.5407029076662 L79.5253955398743,-682.5407029076662 L551.3348900649886,410.1413642373706 Z" fill="none" stroke="white" stroke-width="2" opacity="0.5" />
<path d="M551.3348900649886,410.1413642373706 L-630.8602856048641,272.3993386702959 L-630.8602856048641,272.3993386702959 L79.5253955398743,-682.5407029076662 L79.5253955398743,-682.5407029076662 L551.3348900649886,410.1413642373706 Z" fill="none" stroke="black" stroke-width="2" opacity="0.5" />
<path d="M509.95805891654373,405.320393342523 L-605.9967867647982,238.97643721506722 L-605.9967867647982,238.97643721506722 L96.0387278482533,-644.2968305575898 L96.0387278482533,-644.2968305575898 L509.95805891654373,405.320393342523 Z" fill="none" stroke="white" stroke-width="2" opacity="0.5" />
<path d="M509.95805891654373,405.320393342523 L-605.9967867647982,238.97643721506722 L-605.9967867647982,238.97643721506722 L96.0387278482533,-644.2968305575898 L96.0387278482533,-644.2968305575898 L509.95805891654373,405.320393342523 Z" fill="none" stroke="black" stroke-width="2" opacity="0.5" />
<path d="M470.89963931769677,399.49835487806206 L-581.4255437533415,208.06187284302422 L-581.4255437533415,208.06187284302422 L110.52590443564347,-607.5602277210859 L110.52590443564347,-607.5602277210859 L470.89963931769677,399.49835487806206 Z" fill="none" stroke="white" stroke-width="2" opacity="0.5" />
<path d="M470.89963931769677,399.49835487806206 L-581.4255437533415,208.06187284302422 L-581.4255437533415,208.06187284302422 L110.52590443564347,-607.5602277210859 L110.52590443564347,-607.5602277210859 L470.89963931769677,399.49835487806206 Z" fill="none" stroke="black" stroke-width="2" opacity="0.5" />
<path d="M434.06825791021043,392.79807800683574 L-557.207243066727,179.51509932328037 L-557.207243066727,179.51509932328037 L123.13898515651533,-572.3131773301156 L123.13898515651533,-572.3131773301156 L434.06825791021043,392.79807800683574 Z" fill="none" stroke="white" stroke-width="2" opacity="0.5" />
<path d="M434.06825791021043,392.79807800683574 L-557.207243066727,179.51509932328037 L-557.207243066727,179.51509932328037 L123.13898515651533,-572.3131773301156 L123.13898515651533,-572.3131773301156 L434.06825791021043,392.79807800683574 Z" fill="none" stroke="black" stroke-width="2" opacity="0.5" />
<path d="M399.3736153760176,385.3331737529113 L-533.3951250789135,153.20110964041152 L-533.3951250789135,153.20110964041152 L134.02150970289466,-538.5342833933223 L134.02150970289466,-538.5342833933223 L399.3736153760176,385.3331737529113 Z" fill="none" stroke="white" stroke-width="2" opacity="0.5" />
<path d="M399.3736153760176,385.3331737529113 L-533.3951250789135,153.20110964041152 L-533.3951250789135,153.20110964041152 L134.02150970289466,-538.5342833933223 L134.02150970289466,-538.5342833933223 L399.3736153760176,385.3331737529113 Z" fill="none" stroke="black" stroke-width="2" opacity="0.5" />
<path d="M366.726709460095,377.2085515089738 L-510.03554286155014,128.99037088423083 L-510.03554286155014,128.99037088423083 L143.30883340145397,-506.19892239320416 L143.30883340145397,-506.19892239320416 L366.726709460095,377.2085515089738 Z" fill="none" stroke="white" stroke-width="2" opacity="0.5" />
<path d="M366.726709460095,377.2085515089738 L-510.03554286155014,128.99037088423083 L-510.03554286155014,128.99037088423083 L143.30883340145397,-506.19892239320416 L143.30883340145397,-506.19892239320416 L366.726709460095,377.2085515089738 Z" fill="none" stroke="black" stroke-width="2" opacity="0.5" />
<path d="M336.04003062883737,368.5209151871078 L-487.168489692345,106.7587456195206 L-487.168489692345,106.7587456195206 L151.1284590635064,-475.27966080662793 L151.1284590635064,-475.27966080662793 L336.04003062883737,368.5209151871078 Z" fill="none" stroke="white" stroke-width="2" opacity="0.5" />
<path d="M336.04003062883737,368.5209151871078 L-487.168489692345,106.7587456195206 L-487.168489692345,106.7587456195206 L151.1284590635064,-475.27966080662793 L151.1284590635064,-475.27966080662793 L336.04003062883737,368.5209151871078 Z" fill="none" stroke="black" stroke-width="2" opacity="0.5" />
<path d="M307.227732417596,359.3592392522422 L-464.8280964858902,86.38740139460539 L-464.8280964858902,86.38740139460539 L157.60036406829298,-445.7466406468472 L157.60036406829298,-445.7466406468472 L307.227732417596,359.3592392522422 Z" fill="none" stroke="white" stroke-width="2" opacity="0.5" />
<path d="M307.227732417596,359.3592392522422 L-464.8280964858902,86.38740139460539 L-464.8280964858902,86.38740139460539 L157.60036406829298,-445.7466406468472 L157.60036406829298,-445.7466406468472 L307.227732417596,359.3592392522422 Z" fill="none" stroke="black" stroke-width="2" opacity="0.5" />
<path d="M280.20577840597394,349.8052249272249 L-443.04310036649383,67.76270992315455 L-443.04310036649383,67.76270992315455 L162.83732196051858,-417.56793485037906 L162.83732196051858,-417.56793485037906 L280.20577840597394,349.8052249272249 Z" fill="none" stroke="white" stroke-width="2" opacity="0.5" />
<path d="M280.20577840597394,349.8052249272249 L-443.04310036649383,67.76270992315455 L-443.04310036649383,67.76270992315455 L162.83732196051858,-417.56793485037906 L162.83732196051858,-417.56793485037906 L280.20577840597394,349.8052249272249 Z" fill="none" stroke="black" stroke-width="2" opacity="0.5" />
<path d="M254.89206764893757,339.93373690208244 L-421.8372855850484,50.776137356080866 L-421.8372855850484,50.776137356080866 L166.94521793610951,-390.7098742581629 L166.94521793610951,-390.7098742581629 L254.89206764893757,339.93373690208244 Z" fill="none" stroke="white" stroke-width="2" opacity="0.5" />
<path d="M254.89206764893757,339.93373690208244 L-421.8372855850484,50.776137356080866 L-421.8372855850484,50.776137356080866 L166.94521793610951,-390.7098742581629 L166.94521793610951,-390.7098742581629 L254.89206764893757,339.93373690208244 Z" fill="none" stroke="black" stroke-width="2" opacity="0.5" />
<path d="M231.20654028574805,329.8132209179724 L-401.22989796180786,35.324126949582336 L-401.22989796180786,35.324126949582336 L170.0233576760585,-365.13734786755435 L170.0233576760585,-365.13734786755435 L231.20654028574805,329.8132209179724 Z" fill="none" stroke="white" stroke-width="2" opacity="0.5" />
<path d="M231.20654028574805,329.8132209179724 L-401.22989796180786,35.324126949582336 L-401.22989796180786,35.324126949582336 L170.0233576760585,-365.13734786755435 L170.0233576760585,-365.13734786755435 L231.20654028574805,329.8132209179724 Z" fill="none" stroke="black" stroke-width="2" opacity="0.5" />
<path d="M209.0712649470836,319.5061026290787 L-381.2360340144825,21.30797533098255 L-381.2360340144825,21.30797533098255 L172.16476906739766,-340.8140779600609 L172.16476906739766,-340.8140779600609 L209.0712649470836,319.5061026290787 Z" fill="none" stroke="white" stroke-width="2" opacity="0.5" />
<path d="M209.0712649470836,319.5061026290787 L-381.2360340144825,21.30797533098255 L-381.2360340144825,21.30797533098255 L172.16476906739766,-340.8140779600609 L172.16476906739766,-340.8140779600609 L209.0712649470836,319.5061026290787 Z" fill="none" stroke="black" stroke-width="2" opacity="0.5" />
<path d="M188.41050948342877,309.0691681736454 L-361.8670059066167,8.633703465796028 L-361.8670059066167,8.633703465796028 L173.45649642318668,-317.702871639441 L173.45649642318668,-317.702871639441 L188.41050948342877,309.0691681736454 Z" fill="none" stroke="white" stroke-width="2" opacity="0.5" />
<path d="M188.41050948342877,309.0691681736454 L-361.8670059066167,8.633703465796028 L-361.8670059066167,8.633703465796028 L173.45649642318668,-317.702871639441 L173.45649642318668,-317.702871639441 L188.41050948342877,309.0691681736454 Z" fill="none" stroke="black" stroke-width="2" opacity="0.5" />
<path d="M169.15079644477717,298.55392690887066 L-343.1306833250736,-2.7880766628872706 L-343.1306833250736,-2.7880766628872706 L173.97988688029514,-295.76585024598296 L173.97988688029514,-295.76585024598296 L169.15079644477717,298.55392690887066 Z" fill="none" stroke="white" stroke-width="2" opacity="0.5" />
<path d="M169.15079644477717,298.55392690887066 L-343.1306833250736,-2.7880766628872706 L-343.1306833250736,-2.7880766628872706 L173.97988688029514,-295.76585024598296 L173.97988688029514,-295.76585024598296 L169.15079644477717,298.55392690887066 Z" fill="none" stroke="black" stroke-width="2" opacity="0.5" />
<path d="M151.2209446528324,288.00695678385915 L-325.0318133678857,-13.042298738295623 L-325.0318133678857,-13.042298738295623 L173.810868715052,-274.96465804556306 L173.810868715052,-274.96465804556306 L151.2209446528324,288.00695678385915 Z" fill="none" stroke="white" stroke-width="2" opacity="0.5" />
<path d="M151.2209446528324,288.00695678385915 L-325.0318133678857,-13.042298738295623 L-325.0318133678857,-13.042298738295623 L173.810868715052,-274.96465804556306 L173.810868715052,-274.96465804556306 L151.2209446528324,288.00695678385915 Z" fill="none" stroke="black" stroke-width="2" opacity="0.5" />
<path d="M134.55209812210728,277.4702328405837 L-307.5723194949829,-22.209581314049984 L-307.5723194949829,-22.209581314049984 L173.02022137287432,-255.26065152653328 L173.02022137287432,-255.26065152653328 L134.55209812210728,277.4702328405837 Z" fill="none" stroke="white" stroke-width="2" opacity="0.5" />
<path d="M134.55209812210728,277.4702328405837 L-307.5723194949829,-22.209581314049984 L-307.5723194949829,-22.209581314049984 L173.02022137287432,-255.26065152653328 L173.02022137287432,-255.26065152653328 L134.55209812210728,277.4702328405837 Z" fill="none" stroke="black" stroke-width="2" opacity="0.5" />
<path d="M119.07774350550912,266.9814393451715 L-290.7515805646079,-30.3663687714869 L-290.7515805646079,-30.3663687714869 L171.67383705909748,-236.6150705736842 L171.67383705909748,-236.6150705736842 L119.07774350550912,266.9814393451715 Z" fill="none" stroke="white" stroke-width="2" opacity="0.5" />
<path d="M119.07774350550912,266.9814393451715 L-290.7515805646079,-30.3663687714869 L-290.7515805646079,-30.3663687714869 L171.67383705909748,-236.6150705736842 L171.67383705909748,-236.6150705736842 L119.07774350550912,266.9814393451715 Z" fill="none" stroke="black" stroke-width="2" opacity="0.5" />
<path d="M104.73371716305502,256.57426606108845 L-274.56669094777817,-37.58507333456381 L-274.56669094777817,-37.58507333456381 L169.83297378472187,-218.98919272652424 L169.83297378472187,-218.98919272652424 L104.73371716305502,256.57426606108845 Z" fill="none" stroke="white" stroke-width="2" opacity="0.5" />
<path d="M104.73371716305502,256.57426606108845 L-274.56669094777817,-37.58507333456381 L-274.56669094777817,-37.58507333456381 L169.83297378472187,-218.98919272652424 L169.83297378472187,-218.98919272652424 L104.73371716305502,256.57426606108845 Z" fill="none" stroke="black" stroke-width="2" opacity="0.5" />
<path d="M91.45820287917586,246.2786891822406 L-259.0127026821407,-43.93421751328243 L-259.0127026821407,-43.93421751328243 L167.55449980296353,-202.3444716689578 L167.55449980296353,-202.3444716689578 L91.45820287917586,246.2786891822406 Z" fill="none" stroke="white" stroke-width="2" opacity="0.5" />
<path d="M91.45820287917586,246.2786891822406 L-259.0127026821407,-43.93421751328243 L-259.0127026821407,-43.93421751328243 L167.55449980296353,-202.3444716689578 L167.55449980296353,-202.3444716689578 L91.45820287917586,246.2786891822406 Z" fill="none" stroke="black" stroke-width="2" opacity="0.5" />
<path d="M79.19172118452978,236.1212374478973 L-244.08285059516203,-49.478576408731065 L-244.08285059516203,-49.478576408731065 L164.89112941063095,-186.64266103916586 L164.89112941063095,-186.64266103916586 L79.19172118452978,236.1212374478973 Z" fill="none" stroke="white" stroke-width="2" opacity="0.5" />
<path d="M79.19172118452978,236.1212374478973 L-244.08285059516203,-49.478576408731065 L-244.08285059516203,-49.478576408731065 L164.89112941063095,-186.64266103916586 L164.89112941063095,-186.64266103916586 L79.19172118452978,236.1212374478973 Z" fill="none" stroke="black" stroke-width="2" opacity="0.5" />
<path d="M67.87711117224057,226.1252439629153 L-229.76876129495926,-54.27931937079629 L-229.76876129495926,-54.27931937079629 L161.8916501227174,-171.84592459211865 L161.8916501227174,-171.84592459211865 L67.87711117224057,226.1252439629153 Z" fill="none" stroke="white" stroke-width="2" opacity="0.5" />
<path d="M67.87711117224057,226.1252439629153 L-229.76876129495926,-54.27931937079629 L-229.76876129495926,-54.27931937079629 L161.8916501227174,-171.84592459211865 L161.8916501227174,-171.84592459211865 L67.87711117224057,226.1252439629153 Z" fill="none" stroke="black" stroke-width="2" opacity="0.5" />
<path d="M57.45950563588858,216.3110842462354 L-216.06064689534057,-58.39415055354257 L-216.06064689534057,-58.39415055354257 L158.6011412594507,-157.91693369269245 L158.6011412594507,-157.91693369269245 L57.45950563588858,216.3110842462354 Z" fill="none" stroke="white" stroke-width="2" opacity="0.5" />
<path d="M57.45950563588858,216.3110842462354 L-216.06064689534057,-58.39415055354257 L-216.06064689534057,-58.39415055354257 L158.6011412594507,-157.91693369269245 L158.6011412594507,-157.91693369269245 L57.45950563588858,216.3110842462354 Z" fill="none" stroke="black" stroke-width="2" opacity="0.5" />
<path d="M47.88630029729556,206.69640102824317 L-202.94748430992288,-61.87744796341282 L-202.94748430992288,-61.87744796341282 L155.06118401262603,-144.81895306482997 L155.06118401262603,-144.81895306482997 L47.88630029729556,206.69640102824317 Z" fill="none" stroke="white" stroke-width="2" opacity="0.5" />
<path d="M47.88630029729556,206.69640102824317 L-202.94748430992288,-61.87744796341282 L-202.94748430992288,-61.87744796341282 L155.06118401262603,-144.81895306482997 L155.06118401262603,-144.81895306482997 L47.88630029729556,206.69640102824317 Z" fill="none" stroke="black" stroke-width="2" opacity="0.5" />
<path d="M39.10711783604292,197.29631631353521 L-190.41718091863368,-64.78040064196242 L-190.41718091863368,-64.78040064196242 L151.31006308258947,-132.5159156715724 L151.31006308258947,-132.5159156715724 L39.10711783604292,197.29631631353521 Z" fill="none" stroke="white" stroke-width="2" opacity="0.5" />
<path d="M39.10711783604292,197.29631631353521 L-190.41718091863368,-64.78040064196242 L-190.41718091863368,-64.78040064196242 L151.31006308258947,-132.5159156715724 L151.31006308258947,-132.5159156715724 L39.10711783604292,197.29631631353521 Z" fill="none" stroke="black" stroke-width="2" opacity="0.5" />
<path d="M31.07376737962924,188.1236312200928 L-178.45672737859087,-67.15114366799877 L-178.45672737859087,-67.15114366799877 L147.38295999896033,-120.97248755209364 L147.38295999896033,-120.97248755209364 L31.07376737962924,188.1236312200928 Z" fill="none" stroke="white" stroke-width="2" opacity="0.5" />
<path d="M31.07376737962924,188.1236312200928 L-178.45672737859087,-67.15114366799877 L-178.45672737859087,-67.15114366799877 L147.38295999896033,-120.97248755209364 L147.38295999896033,-120.97248755209364 L31.07376737962924,188.1236312200928 Z" fill="none" stroke="black" stroke-width="2" opacity="0.5" />
<path d="M23.740200063091535,179.18901409900957 L-167.05233832037658,-69.03489070394208 L-167.05233832037658,-69.03489070394208 L143.31213825728375,-110.15412339506712 L143.31213825728375,-110.15412339506712 L23.740200063091535,179.18901409900957 Z" fill="none" stroke="white" stroke-width="2" opacity="0.5" />
<path d="M23.740200063091535,179.18901409900957 L-167.05233832037658,-69.03489070394208 L-167.05233832037658,-69.03489070394208 L143.31213825728375,-110.15412339506712 L143.31213825728375,-110.15412339506712 L23.740200063091535,179.18901409900957 Z" fill="none" stroke="black" stroke-width="2" opacity="0.5" />
<path d="M17.062461219670148,170.50117743090627 L-156.18958164015845,-70.47406384813146 L-156.18958164015845,-70.47406384813146 L139.12712042048702,-100.02711358277443 L139.12712042048702,-100.02711358277443 L17.062461219670148,170.50117743090627 Z" fill="none" stroke="white" stroke-width="2" opacity="0.5" />
<path d="M17.062461219670148,170.50117743090627 L-156.18958164015845,-70.47406384813146 L-156.18958164015845,-70.47406384813146 L139.12712042048702,-100.02711358277443 L139.12712042048702,-100.02711358277443 L17.062461219670148,170.50117743090627 Z" fill="none" stroke="black" stroke-width="2" opacity="0.5" />
<path d="M10.998639719576143,162.06704398613994 L-145.85349706803586,-71.50842058884398 L-145.85349706803586,-71.50842058884398 L134.85485734845844,-90.5586233972956 L134.85485734845844,-90.5586233972956 L10.998639719576143,162.06704398613994 Z" fill="none" stroke="white" stroke-width="2" opacity="0.5" />
<path d="M10.998639719576143,162.06704398613994 L-145.85349706803586,-71.50842058884398 L-145.85349706803586,-71.50842058884398 L134.85485734845844,-90.5586233972956 L134.85485734845844,-90.5586233972956 L10.998639719576143,162.06704398613994 Z" fill="none" stroke="black" stroke-width="2" opacity="0.5" />
<path d="M5.508814932009722,153.8919027260155 L-136.02870466345857,-72.17517768713978 L-136.02870466345857,-72.17517768713978 L130.51988973144756,-81.71672503887537 L130.51988973144756,-81.71672503887537 L5.508814932009722,153.8919027260155 Z" fill="none" stroke="white" stroke-width="2" opacity="0.5" />
<path d="M5.508814932009722,153.8919027260155 L-136.02870466345857,-72.17517768713978 L-136.02870466345857,-72.17517768713978 L130.51988973144756,-81.71672503887537 L130.51988973144756,-81.71672503887537 L5.508814932009722,153.8919027260155 Z" fill="none" stroke="black" stroke-width="2" opacity="0.5" />
<path d="M0.5550017461683314,145.97955491155506 L-126.69950385963685,-72.50913184445052 L-126.69950385963685,-72.50913184445052 L126.14450211346724,-73.47042306710418 L126.14450211346724,-73.47042306710418 L0.5550017461683314,145.97955491155506 Z" fill="none" stroke="white" stroke-width="2" opacity="0.5" />
<path d="M0.5550017461683314,145.97955491155506 L-126.69950385963685,-72.50913184445052 L-126.69950385963685,-72.50913184445052 L126.14450211346724,-73.47042306710418 L126.14450211346724,-73.47042306710418 L0.5550017461683314,145.97955491155506 Z" fill="none" stroke="black" stroke-width="2" opacity="0.5" />
<path d="M-3.89890595003485,138.33245087509485 L-117.8499636505782,-72.5427770372434 L-117.8499636505782,-72.5427770372434 L121.74886960061178,-65.78967383785111 L121.74886960061178,-65.78967383785111 L-3.89890595003485,138.33245087509485 Z" fill="none" stroke="white" stroke-width="2" opacity="0.5" />
</g>
<g id="d1">
<path d="M-1000.0000000000009,-1610.8072510390555 L-894.9999999999995,1671.4290293039667 L-894.9999999999995,1671.4290293039667 L1895.0,-60.621778264910716 L1895.0,-60.621778264910716 L-1000.0000000000009,-1610.8072510390555 Z" fill="none" stroke="black" stroke-width="2" opacity="0.5" />
<path d="M-1000.0000000000009,-1732.050807568877 L-999.9999999999995,1732.0508075688774 L-999.9999999999995,1732.0508075688774 L2000.0,0.0 L2000.0,0.0 L-1000.0000000000009,-1732.050807568877 Z" fill="none" stroke="white" stroke-width="2" opacity="0.5" />
<path d="M-996.3250000000008,-1495.9289812270497 L-797.3499999999996,1610.807251039056 L-797.3499999999996,1610.807251039056 L1793.675,-114.8782698120058 L1793.675,-114.8782698120058 L-996.3250000000008,-1495.9289812270497 Z" fill="none" stroke="black" stroke-width="2" opacity="0.5" />
<path d="M-1000.0000000000009,-1610.8072510390555 L-894.9999999999995,1671.4290293039667 L-894.9999999999995,1671.4290293039667 L1895.0,-60.621778264910716 L1895.0,-60.621778264910716 L-1000.0000000000009,-1610.8072510390555 Z" fill="none" stroke="white" stroke-width="2" opacity="0.5" />
<path d="M-989.3608750000008,-1387.193213097736 L-706.6641249999996,1550.4082578092687 L-706.6641249999996,1550.4082578092687 L1696.0249999999999,-163.21504471153236 L1696.0249999999999,-163.21504471153236 L-989.3608750000008,-1387.193213097736 Z" fill="none" stroke="black" stroke-width="2" opacity="0.5" />
<path d="M-996.3250000000008,-1495.9289812270497 L-797.3499999999996,1610.807251039056 L-797.3499999999996,1610.807251039056 L1793.675,-114.8782698120058 L1793.675,-114.8782698120058 L-996.3250000000008,-1495.9289812270497 Z" fill="none" stroke="white" stroke-width="2" opacity="0.5" />
<path d="M-979.4664887500007,-1284.3771616159906 L-622.5700056249996,1490.4314422210407 L-622.5700056249996,1490.4314422210407 L1602.0364943749998,-206.05428060504948 L1602.0364943749998,-206.05428060504948 L-979.4664887500007,-1284.3771616159906 Z" fill="none" stroke="black" stroke-width="2" opacity="0.5" />
<path d="M-989.3608750000008,-1387.193213097736 L-706.6641249999996,1550.4082578092687 L-706.6641249999996,1550.4082578092687 L1696.0249999999999,-163.21504471153236 L1696.0249999999999,-163.21504471153236 L-989.3608750000008,-1387.193213097736 Z" fill="none" stroke="white" stroke-width="2" opacity="0.5" />
<path d="M-966.9751118406257,-1187.2588604816945 L-544.7087781249995,1431.0544419221276 L-544.7087781249995,1431.0544419221276 L1511.6838899656248,-243.79558144043241 L1511.6838899656248,-243.79558144043241 L-966.9751118406257,-1187.2588604816945 Z" fill="none" stroke="black" stroke-width="2" opacity="0.5" />
<path d="M-979.4664887500007,-1284.3771616159906 L-622.5700056249996,1490.4314422210407 L-622.5700056249996,1490.4314422210407 L1602.0364943749998,-206.05428060504948 L1602.0364943749998,-206.05428060504948 L-979.4664887500007,-1284.3771616159906 Z" fill="none" stroke="white" stroke-width="2" opacity="0.5" />
<path d="M-952.1957901605788,-1095.6178948975607 L-472.7350347418277,1372.434691104438 L-472.7350347418277,1372.434691104438 L1424.930824902406,-276.8167962068766 L1424.930824902406,-276.8167962068766 L-952.1957901605788,-1095.6178948975607 Z" fill="none" stroke="black" stroke-width="2" opacity="0.5" />
<path d="M-966.9751118406257,-1187.2588604816945 L-544.7087781249995,1431.0544419221276 L-544.7087781249995,1431.0544419221276 L1511.6838899656248,-243.79558144043241 L1511.6838899656248,-243.79558144043241 L-966.9751118406257,-1187.2588604816945 Z" fill="none" stroke="white" stroke-width="2" opacity="0.5" />
<path d="M-935.4146637209225,-1009.2360543874908 L-406.3167296542795,1314.710889048542 L-406.3167296542795,1314.710889048542 L1341.7313933752014,-305.4748346610505 L1341.7313933752014,-305.4748346610505 L-935.4146637209225,-1009.2360543874908 Z" fill="none" stroke="black" stroke-width="2" opacity="0.5" />
<path d="M-952.1957901605788,-1095.6178948975607 L-472.7350347418277,1372.434691104438 L-472.7350347418277,1372.434691104438 L1424.930824902406,-276.8167962068766 L1424.930824902406,-276.8167962068766 L-952.1957901605788,-1095.6178948975607 Z" fill="none" stroke="white" stroke-width="2" opacity="0.5" />
<path d="M-916.89623602859,-927.8979113672297 L-345.1350453482477,1258.0043887187062 L-345.1350453482477,1258.0043887187062 L1262.0312813768371,-330.1064773514759 L1262.0312813768371,-330.1064773514759 L-916.89623602859,-927.8979113672297 Z" fill="none" stroke="black" stroke-width="2" opacity="0.5" />
<path d="M-935.4146637209225,-1009.2360543874908 L-406.3167296542795,1314.710889048542 L-406.3167296542795,1314.710889048542 L1341.7313933752014,-305.4748346610505 L1341.7313933752014,-305.4748346610505 L-935.4146637209225,-1009.2360543874908 Z" fill="none" stroke="white" stroke-width="2" opacity="0.5" />
<path d="M-896.8845943547781,-851.3913308642219 L-288.8842239128697,1202.4205084062498 L-288.8842239128697,1202.4205084062498 L1185.7688182676472,-351.0291775420273 L1185.7688182676472,-351.0291775420273 L-896.8845943547781,-851.3913308642219 Z" fill="none" stroke="black" stroke-width="2" opacity="0.5" />
<path d="M-916.89623602859,-927.8979113672297 L-345.1350453482477,1258.0043887187062 L-345.1350453482477,1258.0043887187062 L1262.0312813768371,-330.1064773514759 L1262.0312813768371,-330.1064773514759 L-916.89623602859,-927.8979113672297 Z" fill="none" stroke="white" stroke-width="2" opacity="0.5" />
<path d="M-875.6045813893113,-779.5079164897554 L-237.2713674365516,1148.04976939806 L-237.2713674365516,1148.04976939806 L1112.8759488258625,-368.5418529083041 L1112.8759488258625,-368.5418529083041 L-875.6045813893113,-779.5079164897554 Z" fill="none" stroke="black" stroke-width="2" opacity="0.5" />
<path d="M-896.8845943547781,-851.3913308642219 L-288.8842239128697,1202.4205084062498 L-288.8842239128697,1202.4205084062498 L1185.7688182676472,-351.0291775420273 L1185.7688182676472,-351.0291775420273 L-896.8845943547781,-851.3913308642219 Z" fill="none" stroke="white" stroke-width="2" opacity="0.5" />
<path d="M-853.2629189009647,-712.0433974836819 L-190.0162113673671,1094.9690626173374 L-190.0162113673671,1094.9690626173374 L1043.2791302683313,-382.9256651336549 L1043.2791302683313,-382.9256651336549 L-853.2629189009647,-712.0433974836819 Z" fill="none" stroke="black" stroke-width="2" opacity="0.5" />
<path d="M-875.6045813893113,-779.5079164897554 L-237.2713674365516,1148.04976939806 L-237.2713674365516,1148.04976939806 L1112.8759488258625,-368.5418529083041 L1112.8759488258625,-368.5418529083041 L-875.6045813893113,-779.5079164897554 Z" fill="none" stroke="white" stroke-width="2" opacity="0.5" />
<path d="M-830.0492841372887,-648.7979613801463 L-146.85087441011765,1043.2427471460526 L-146.85087441011765,1043.2427471460526 L976.9001585474059,-394.44478576590586 L976.9001585474059,-394.44478576590586 L-830.0492841372887,-648.7979613801463 Z" fill="none" stroke="black" stroke-width="2" opacity="0.5" />
<path d="M-853.2629189009647,-712.0433974836819 L-190.0162113673671,1094.9690626173374 L-190.0162113673671,1094.9690626173374 L1043.2791302683313,-382.9256651336549 L1043.2791302683313,-382.9256651336549 L-853.2629189009647,-712.0433974836819 Z" fill="none" stroke="white" stroke-width="2" opacity="0.5" />
<path d="M-806.1373397968378,-589.5765365817293 L-107.51958825660432,992.923683494134 L-107.51958825660432,992.923683494134 L913.6569280534416,-403.3471469124043 L913.6569280534416,-403.3471469124043 L-806.1373397968378,-589.5765365817293 Z" fill="none" stroke="black" stroke-width="2" opacity="0.5" />
<path d="M-830.0492841372887,-648.7979613801463 L-146.85087441011765,1043.2427471460526 L-146.85087441011765,1043.2427471460526 L976.9001585474059,-394.44478576590586 L976.9001585474059,-394.44478576590586 L-830.0492841372887,-648.7979613801463 Z" fill="none" stroke="white" stroke-width="2" opacity="0.5" />
<path d="M-781.6857184929296,-534.1890288790742 L-71.77841018575272,944.0542044299052 L-71.77841018575272,944.0542044299052 L853.4641286786818,-409.86517555083066 L853.4641286786818,-409.86517555083066 L-781.6857184929296,-534.1890288790742 Z" fill="none" stroke="black" stroke-width="2" opacity="0.5" />
<path d="M-806.1373397968378,-589.5765365817293 L-107.51958825660432,992.923683494134 L-107.51958825660432,992.923683494134 L913.6569280534416,-403.3471469124043 L913.6569280534416,-403.3471469124043 L-806.1373397968378,-589.5765365817293 Z" fill="none" stroke="white" stroke-width="2" opacity="0.5" />
<path d="M-756.8389627021784,-482.45051571325985 L-39.394921325497506,896.6670261305794 L-39.394921325497506,896.6670261305794 L796.2338840276755,-414.21651041731917 L796.2338840276755,-414.21651041731917 L-756.8389627021784,-482.45051571325985 Z" fill="none" stroke="black" stroke-width="2" opacity="0.5" />
<path d="M-781.6857184929296,-534.1890288790742 L-71.77841018575272,944.0542044299052 L-71.77841018575272,944.0542044299052 L853.4641286786818,-409.86517555083066 L853.4641286786818,-409.86517555083066 L-781.6857184929296,-534.1890288790742 Z" fill="none" stroke="white" stroke-width="2" opacity="0.5" />
<path d="M-731.7284212539945,-434.1814017487255 L-10.147913138136449,850.786102351403 L-10.147913138136449,850.786102351403 L741.8763343921306,-416.6047006026771 L741.8763343921306,-416.6047006026771 L-731.7284212539945,-434.1814017487255 Z" fill="none" stroke="black" stroke-width="2" opacity="0.5" />
<path d="M-756.8389627021784,-482.45051571325985 L-39.394921325497506,896.6670261305794 L-39.394921325497506,896.6670261305794 L796.2338840276755,-414.21651041731917 L796.2338840276755,-414.21651041731917 L-756.8389627021784,-482.45051571325985 Z" fill="none" stroke="white" stroke-width="2" opacity="0.5" />
<path d="M-706.4731034699395,-389.207539105221 L16.172935525422893,806.4274242480102 L16.172935525422893,806.4274242480102 L690.3001679445163,-417.2198851427888 L690.3001679445163,-417.2198851427888 L-706.4731034699395,-389.207539105221 Z" fill="none" stroke="black" stroke-width="2" opacity="0.5" />
<path d="M-731.7284212539945,-434.1814017487255 L-10.147913138136449,850.786102351403 L-10.147913138136449,850.786102351403 L741.8763343921306,-416.6047006026771 L741.8763343921306,-416.6047006026771 L-731.7284212539945,-434.1814017487255 Z" fill="none" stroke="white" stroke-width="2" opacity="0.5" />
<path d="M-681.1804921051018,-347.3603153878579 L39.767388660091164,763.5997684193322 L39.767388660091164,763.5997684193322 L641.4131034450103,-416.23945303147394 L641.4131034450103,-416.23945303147394 L-681.1804921051018,-347.3603153878579 Z" fill="none" stroke="black" stroke-width="2" opacity="0.5" />
<path d="M-706.4731034699395,-389.207539105221 L16.172935525422893,806.4274242480102 L16.172935525422893,806.4274242480102 L690.3001679445163,-417.2198851427888 L690.3001679445163,-417.2198851427888 L-706.4731034699395,-389.207539105221 Z" fill="none" stroke="white" stroke-width="2" opacity="0.5" />
<path d="M-655.94731627832,-308.47671245460623 L60.82498867756334,722.3053956685541 L60.82498867756334,722.3053956685541 L595.1223276007563,-413.8286832139474 L595.1223276007563,-413.8286832139474 L-655.94731627832,-308.47671245460623 Z" fill="none" stroke="black" stroke-width="2" opacity="0.5" />
<path d="M-681.1804921051018,-347.3603153878579 L39.767388660091164,763.5997684193322 L39.767388660091164,763.5997684193322 L641.4131034450103,-416.23945303147394 L641.4131034450103,-416.23945303147394 L-681.1804921051018,-347.3603153878579 Z" fill="none" stroke="white" stroke-width="2" opacity="0.5" />
<path d="M-630.8602856048641,-272.3993386702956 L79.52539553987509,682.5407029076665 L79.52539553987509,682.5407029076665 L551.3348900649886,-410.14136423737045 L551.3348900649886,-410.14136423737045 L-630.8602856048641,-272.3993386702956 Z" fill="none" stroke="black" stroke-width="2" opacity="0.5" />
<path d="M-655.94731627832,-308.47671245460623 L60.82498867756334,722.3053956685541 L60.82498867756334,722.3053956685541 L595.1223276007563,-413.8286832139474 L595.1223276007563,-413.8286832139474 L-655.94731627832,-308.47671245460623 Z" fill="none" stroke="white" stroke-width="2" opacity="0.5" />
<path d="M-605.9967867647982,-238.97643721506694 L96.03872784825407,644.2968305575902 L96.03872784825407,644.2968305575902 L509.95805891654373,-405.32039334252283 L509.95805891654373,-405.32039334252283 L-605.9967867647982,-238.97643721506694 Z" fill="none" stroke="black" stroke-width="2" opacity="0.5" />
<path d="M-630.8602856048641,-272.3993386702956 L79.52539553987509,682.5407029076665 L79.52539553987509,682.5407029076665 L551.3348900649886,-410.14136423737045 L551.3348900649886,-410.14136423737045 L-630.8602856048641,-272.3993386702956 Z" fill="none" stroke="white" stroke-width="2" opacity="0.5" />
<path d="M-581.4255437533413,-208.06187284302393 L110.52590443564421,607.5602277210862 L110.52590443564421,607.5602277210862 L470.89963931769677,-399.4983548780619 L470.89963931769677,-399.4983548780619 L-581.4255437533413,-208.06187284302393 Z" fill="none" stroke="black" stroke-width="2" opacity="0.5" />
<path d="M-605.9967867647982,-238.97643721506694 L96.03872784825407,644.2968305575902 L96.03872784825407,644.2968305575902 L509.95805891654373,-405.32039334252283 L509.95805891654373,-405.32039334252283 L-605.9967867647982,-238.97643721506694 Z" fill="none" stroke="white" stroke-width="2" opacity="0.5" />
<path d="M-557.2072430667268,-179.51509932328008 L123.13898515651604,572.313177330116 L123.13898515651604,572.313177330116 L434.06825791021043,-392.79807800683557 L434.06825791021043,-392.79807800683557 L-557.2072430667268,-179.51509932328008 Z" fill="none" stroke="black" stroke-width="2" opacity="0.5" />
<path d="M-581.4255437533413,-208.06187284302393 L110.52590443564421,607.5602277210862 L110.52590443564421,607.5602277210862 L470.89963931769677,-399.4983548780619 L470.89963931769677,-399.4983548780619 L-581.4255437533413,-208.06187284302393 Z" fill="none" stroke="white" stroke-width="2" opacity="0.5" />
<path d="M-533.3951250789133,-153.2011096404112 L134.02150970289534,538.5342833933227 L134.02150970289534,538.5342833933227 L399.3736153760176,-385.33317375291114 L399.3736153760176,-385.33317375291114 L-533.3951250789133,-153.2011096404112 Z" fill="none" stroke="black" stroke-width="2" opacity="0.5" />
<path d="M-557.2072430667268,-179.51509932328008 L123.13898515651604,572.313177330116 L123.13898515651604,572.313177330116 L434.06825791021043,-392.79807800683557 L434.06825791021043,-392.79807800683557 L-557.2072430667268,-179.51509932328008 Z" fill="none" stroke="white" stroke-width="2" opacity="0.5" />
<path d="M-510.03554286155,-128.99037088423052 L143.30883340145462,506.1989223932045 L143.30883340145462,506.1989223932045 L366.72670946009504,-377.20855150897364 L366.72670946009504,-377.20855150897364 L-510.03554286155,-128.99037088423052 Z" fill="none" stroke="black" stroke-width="2" opacity="0.5" />
<path d="M-533.3951250789133,-153.2011096404112 L134.02150970289534,538.5342833933227 L134.02150970289534,538.5342833933227 L399.3736153760176,-385.33317375291114 L399.3736153760176,-385.33317375291114 L-533.3951250789133,-153.2011096404112 Z" fill="none" stroke="white" stroke-width="2" opacity="0.5" />
<path d="M-487.16848969234485,-106.75874561952028 L151.12845906350702,475.27966080662827 L151.12845906350702,475.27966080662827 L336.0400306288375,-368.5209151871076 L336.0400306288375,-368.5209151871076 L-487.16848969234485,-106.75874561952028 Z" fill="none" stroke="black" stroke-width="2" opacity="0.5" />
<path d="M-510.03554286155,-128.99037088423052 L143.30883340145462,506.1989223932045 L143.30883340145462,506.1989223932045 L366.72670946009504,-377.20855150897364 L366.72670946009504,-377.20855150897364 L-510.03554286155,-128.99037088423052 Z" fill="none" stroke="white" stroke-width="2" opacity="0.5" />
<path d="M-464.82809648589006,-86.38740139460509 L157.6003640682936,445.74664064684754 L157.6003640682936,445.74664064684754 L307.2277324175961,-359.35923925224205 L307.2277324175961,-359.35923925224205 L-464.82809648589006,-86.38740139460509 Z" fill="none" stroke="black" stroke-width="2" opacity="0.5" />
<path d="M-487.16848969234485,-106.75874561952028 L151.12845906350702,475.27966080662827 L151.12845906350702,475.27966080662827 L336.0400306288375,-368.5209151871076 L336.0400306288375,-368.5209151871076 L-487.16848969234485,-106.75874561952028 Z" fill="none" stroke="white" stroke-width="2" opacity="0.5" />
<path d="M-443.0431003664936,-67.76270992315425 L162.83732196051918,417.5679348503794 L162.83732196051918,417.5679348503794 L280.20577840597406,-349.80522492722474 L280.20577840597406,-349.80522492722474 L-443.0431003664936,-67.76270992315425 Z" fill="none" stroke="black" stroke-width="2" opacity="0.5" />
<path d="M-464.82809648589006,-86.38740139460509 L157.6003640682936,445.74664064684754 L157.6003640682936,445.74664064684754 L307.2277324175961,-359.35923925224205 L307.2277324175961,-359.35923925224205 L-464.82809648589006,-86.38740139460509 Z" fill="none" stroke="white" stroke-width="2" opacity="0.5" />
<path d="M-421.83728558504816,-50.77613735608057 L166.94521793611008,390.70987425816327 L166.94521793611008,390.70987425816327 L254.89206764893768,-339.9337369020823 L254.89206764893768,-339.9337369020823 L-421.83728558504816,-50.77613735608057 Z" fill="none" stroke="black" stroke-width="2" opacity="0.5" />
<path d="M-443.0431003664936,-67.76270992315425 L162.83732196051918,417.5679348503794 L162.83732196051918,417.5679348503794 L280.20577840597406,-349.80522492722474 L280.20577840597406,-349.80522492722474 L-443.0431003664936,-67.76270992315425 Z" fill="none" stroke="white" stroke-width="2" opacity="0.5" />
<path d="M-401.22989796180764,-35.32412694958204 L170.02335767605905,365.1373478675547 L170.02335767605905,365.1373478675547 L231.2065402857482,-329.8132209179722 L231.2065402857482,-329.8132209179722 L-401.22989796180764,-35.32412694958204 Z" fill="none" stroke="black" stroke-width="2" opacity="0.5" />
<path d="M-421.83728558504816,-50.77613735608057 L166.94521793611008,390.70987425816327 L166.94521793611008,390.70987425816327 L254.89206764893768,-339.9337369020823 L254.89206764893768,-339.9337369020823 L-421.83728558504816,-50.77613735608057 Z" fill="none" stroke="white" stroke-width="2" opacity="0.5" />
<path d="M-381.2360340144823,-21.307975330982252 L172.16476906739817,340.81407796006124 L172.16476906739817,340.81407796006124 L209.07126494708373,-319.50610262907855 L209.07126494708373,-319.50610262907855 L-381.2360340144823,-21.307975330982252 Z" fill="none" stroke="black" stroke-width="2" opacity="0.5" />
<path d="M-401.22989796180764,-35.32412694958204 L170.02335767605905,365.1373478675547 L170.02335767605905,365.1373478675547 L231.2065402857482,-329.8132209179722 L231.2065402857482,-329.8132209179722 L-401.22989796180764,-35.32412694958204 Z" fill="none" stroke="white" stroke-width="2" opacity="0.5" />
<path d="M-361.8670059066165,-8.633703465795728 L173.45649642318716,317.70287163944136 L173.45649642318716,317.70287163944136 L188.4105094834289,-309.06916817364515 L188.4105094834289,-309.06916817364515 L-361.8670059066165,-8.633703465795728 Z" fill="none" stroke="black" stroke-width="2" opacity="0.5" />
<path d="M-381.2360340144823,-21.307975330982252 L172.16476906739817,340.81407796006124 L172.16476906739817,340.81407796006124 L209.07126494708373,-319.50610262907855 L209.07126494708373,-319.50610262907855 L-381.2360340144823,-21.307975330982252 Z" fill="none" stroke="white" stroke-width="2" opacity="0.5" />
<path d="M-343.1306833250734,2.7880766628875726 L173.97988688029562,295.7658502459833 L173.97988688029562,295.7658502459833 L169.1507964447773,-298.55392690887044 L169.1507964447773,-298.55392690887044 L-343.1306833250734,2.7880766628875726 Z" fill="none" stroke="black" stroke-width="2" opacity="0.5" />
<path d="M-361.8670059066165,-8.633703465795728 L173.45649642318716,317.70287163944136 L173.45649642318716,317.70287163944136 L188.4105094834289,-309.06916817364515 L188.4105094834289,-309.06916817364515 L-361.8670059066165,-8.633703465795728 Z" fill="none" stroke="white" stroke-width="2" opacity="0.5" />
<path d="M-325.0318133678855,13.042298738295925 L173.8108687150525,274.9646580455634 L173.8108687150525,274.9646580455634 L151.22094465283254,-288.0069567838589 L151.22094465283254,-288.0069567838589 L-325.0318133678855,13.042298738295925 Z" fill="none" stroke="black" stroke-width="2" opacity="0.5" />
<path d="M-343.1306833250734,2.7880766628875726 L173.97988688029562,295.7658502459833 L173.97988688029562,295.7658502459833 L169.1507964447773,-298.55392690887044 L169.1507964447773,-298.55392690887044 L-343.1306833250734,2.7880766628875726 Z" fill="none" stroke="white" stroke-width="2" opacity="0.5" />
<path d="M-307.57231949498265,22.209581314050286 L173.0202213728748,255.26065152653362 L173.0202213728748,255.26065152653362 L134.5520981221074,-277.4702328405835 L134.5520981221074,-277.4702328405835 L-307.57231949498265,22.209581314050286 Z" fill="none" stroke="black" stroke-width="2" opacity="0.5" />
<path d="M-325.0318133678855,13.042298738295925 L173.8108687150525,274.9646580455634 L173.8108687150525,274.9646580455634 L151.22094465283254,-288.0069567838589 L151.22094465283254,-288.0069567838589 L-325.0318133678855,13.042298738295925 Z" fill="none" stroke="white" stroke-width="2" opacity="0.5" />
<path d="M-290.75158056460765,30.366368771487203 L171.67383705909793,236.61507057368453 L171.67383705909793,236.61507057368453 L119.07774350550925,-266.98143934517134 L119.07774350550925,-266.98143934517134 L-290.75158056460765,30.366368771487203 Z" fill="none" stroke="black" stroke-width="2" opacity="0.5" />
<path d="M-307.57231949498265,22.209581314050286 L173.0202213728748,255.26065152653362 L173.0202213728748,255.26065152653362 L134.5520981221074,-277.4702328405835 L134.5520981221074,-277.4702328405835 L-307.57231949498265,22.209581314050286 Z" fill="none" stroke="white" stroke-width="2" opacity="0.5" />
<path d="M-274.56669094777794,37.58507333456411 L169.83297378472233,218.98919272652458 L169.83297378472233,218.98919272652458 L104.73371716305516,-256.5742660610883 L104.73371716305516,-256.5742660610883 L-274.56669094777794,37.58507333456411 Z" fill="none" stroke="black" stroke-width="2" opacity="0.5" />
<path d="M-290.75158056460765,30.366368771487203 L171.67383705909793,236.61507057368453 L171.67383705909793,236.61507057368453 L119.07774350550925,-266.98143934517134 L119.07774350550925,-266.98143934517134 L-290.75158056460765,30.366368771487203 Z" fill="none" stroke="white" stroke-width="2" opacity="0.5" />
<path d="M-259.01270268214046,43.934217513282725 L167.554499802964,202.34447166895814 L167.554499802964,202.34447166895814 L91.458202879176,-246.27868918224044 L91.458202879176,-246.27868918224044 L-259.01270268214046,43.934217513282725 Z" fill="none" stroke="black" stroke-width="2" opacity="0.5" />
<path d="M-274.56669094777794,37.58507333456411 L169.83297378472233,218.98919272652458 L169.83297378472233,218.98919272652458 L104.73371716305516,-256.5742660610883 L104.73371716305516,-256.5742660610883 L-274.56669094777794,37.58507333456411 Z" fill="none" stroke="white" stroke-width="2" opacity="0.5" />
<path d="M-244.0828505951618,49.478576408731364 L164.8911294106314,186.64266103916617 L164.8911294106314,186.64266103916617 L79.19172118452992,-236.12123744789713 L79.19172118452992,-236.12123744789713 L-244.0828505951618,49.478576408731364 Z" fill="none" stroke="black" stroke-width="2" opacity="0.5" />
<path d="M-259.01270268214046,43.934217513282725 L167.554499802964,202.34447166895814 L167.554499802964,202.34447166895814 L91.458202879176,-246.27868918224044 L91.458202879176,-246.27868918224044 L-259.01270268214046,43.934217513282725 Z" fill="none" stroke="white" stroke-width="2" opacity="0.5" />
<path d="M-229.76876129495903,54.279319370796586 L161.89165012271786,171.84592459211896 L161.89165012271786,171.84592459211896 L67.87711117224072,-226.12524396291514 L67.87711117224072,-226.12524396291514 L-229.76876129495903,54.279319370796586 Z" fill="none" stroke="black" stroke-width="2" opacity="0.5" />
<path d="M-244.0828505951618,49.478576408731364 L164.8911294106314,186.64266103916617 L164.8911294106314,186.64266103916617 L79.19172118452992,-236.12123744789713 L79.19172118452992,-236.12123744789713 L-244.0828505951618,49.478576408731364 Z" fill="none" stroke="white" stroke-width="2" opacity="0.5" />
<path d="M-216.06064689534034,58.39415055354287 L158.60114125945117,157.91693369269277 L158.60114125945117,157.91693369269277 L57.459505635888725,-216.31108424623523 L57.459505635888725,-216.31108424623523 L-216.06064689534034,58.39415055354287 Z" fill="none" stroke="black" stroke-width="2" opacity="0.5" />
<path d="M-229.76876129495903,54.279319370796586 L161.89165012271786,171.84592459211896 L161.89165012271786,171.84592459211896 L67.87711117224072,-226.12524396291514 L67.87711117224072,-226.12524396291514 L-229.76876129495903,54.279319370796586 Z" fill="none" stroke="white" stroke-width="2" opacity="0.5" />
<path d="M-202.94748430992263,61.87744796341312 L155.06118401262648,144.81895306483028 L155.06118401262648,144.81895306483028 L47.886300297295705,-206.696401028243 L47.886300297295705,-206.696401028243 L-202.94748430992263,61.87744796341312 Z" fill="none" stroke="black" stroke-width="2" opacity="0.5" />
<path d="M-216.06064689534034,58.39415055354287 L158.60114125945117,157.91693369269277 L158.60114125945117,157.91693369269277 L57.459505635888725,-216.31108424623523 L57.459505635888725,-216.31108424623523 L-216.06064689534034,58.39415055354287 Z" fill="none" stroke="white" stroke-width="2" opacity="0.5" />
<path d="M-190.41718091863342,64.78040064196271 L151.3100630825899,132.5159156715727 L151.3100630825899,132.5159156715727 L39.10711783604306,-197.29631631353504 L39.10711783604306,-197.29631631353504 L-190.41718091863342,64.78040064196271 Z" fill="none" stroke="black" stroke-width="2" opacity="0.5" />
<path d="M-202.94748430992263,61.87744796341312 L155.06118401262648,144.81895306483028 L155.06118401262648,144.81895306483028 L47.886300297295705,-206.696401028243 L47.886300297295705,-206.696401028243 L-202.94748430992263,61.87744796341312 Z" fill="none" stroke="white" stroke-width="2" opacity="0.5" />
<path d="M-178.4567273785906,67.15114366799907 L147.38295999896076,120.97248755209394 L147.38295999896076,120.97248755209394 L31.07376737962938,-188.12363122009262 L31.07376737962938,-188.12363122009262 L-178.4567273785906,67.15114366799907 Z" fill="none" stroke="black" stroke-width="2" opacity="0.5" />
<path d="M-190.41718091863342,64.78040064196271 L151.3100630825899,132.5159156715727 L151.3100630825899,132.5159156715727 L39.10711783604306,-197.29631631353504 L39.10711783604306,-197.29631631353504 L-190.41718091863342,64.78040064196271 Z" fill="none" stroke="white" stroke-width="2" opacity="0.5" />
<path d="M-167.05233832037632,69.03489070394238 L143.31213825728415,110.1541233950674 L143.31213825728415,110.1541233950674 L23.74020006309168,-179.1890140990094 L23.74020006309168,-179.1890140990094 L-167.05233832037632,69.03489070394238 Z" fill="none" stroke="black" stroke-width="2" opacity="0.5" />
<path d="M-178.4567273785906,67.15114366799907 L147.38295999896076,120.97248755209394 L147.38295999896076,120.97248755209394 L31.07376737962938,-188.12363122009262 L31.07376737962938,-188.12363122009262 L-178.4567273785906,67.15114366799907 Z" fill="none" stroke="white" stroke-width="2" opacity="0.5" />
<path d="M-156.1895816401582,70.47406384813176 L139.12712042048742,100.02711358277472 L139.12712042048742,100.02711358277472 L17.0624612196703,-170.5011774309061 L17.0624612196703,-170.5011774309061 L-156.1895816401582,70.47406384813176 Z" fill="none" stroke="black" stroke-width="2" opacity="0.5" />
<path d="M-167.05233832037632,69.03489070394238 L143.31213825728415,110.1541233950674 L143.31213825728415,110.1541233950674 L23.74020006309168,-179.1890140990094 L23.74020006309168,-179.1890140990094 L-167.05233832037632,69.03489070394238 Z" fill="none" stroke="white" stroke-width="2" opacity="0.5" />
<path d="M-145.8534970680356,71.50842058884427 L134.8548573484588,90.55862339729589 L134.8548573484588,90.55862339729589 L10.998639719576303,-162.06704398613977 L10.998639719576303,-162.06704398613977 L-145.8534970680356,71.50842058884427 Z" fill="none" stroke="black" stroke-width="2" opacity="0.5" />
<path d="M-156.1895816401582,70.47406384813176 L139.12712042048742,100.02711358277472 L139.12712042048742,100.02711358277472 L17.0624612196703,-170.5011774309061 L17.0624612196703,-170.5011774309061 L-156.1895816401582,70.47406384813176 Z" fill="none" stroke="white" stroke-width="2" opacity="0.5" />
<path d="M-136.0287046634583,72.17517768714008 L130.5198897314479,81.71672503887564 L130.5198897314479,81.71672503887564 L5.508814932009884,-153.89190272601533 L5.508814932009884,-153.89190272601533 L-136.0287046634583,72.17517768714008 Z" fill="none" stroke="black" stroke-width="2" opacity="0.5" />
<path d="M-145.8534970680356,71.50842058884427 L134.8548573484588,90.55862339729589 L134.8548573484588,90.55862339729589 L10.998639719576303,-162.06704398613977 L10.998639719576303,-162.06704398613977 L-145.8534970680356,71.50842058884427 Z" fill="none" stroke="white" stroke-width="2" opacity="0.5" />
<path d="M-126.6995038596366,72.50913184445082 L126.14450211346757,73.47042306710445 L126.14450211346757,73.47042306710445 L0.5550017461684957,-145.97955491155489 L0.5550017461684957,-145.97955491155489 L-126.6995038596366,72.50913184445082 Z" fill="none" stroke="black" stroke-width="2" opacity="0.5" />
<path d="M-136.0287046634583,72.17517768714008 L130.5198897314479,81.71672503887564 L130.5198897314479,81.71672503887564 L5.508814932009884,-153.89190272601533 L5.508814932009884,-153.89190272601533 L-136.0287046634583,72.17517768714008 Z" fill="none" stroke="white" stroke-width="2" opacity="0.5" />
<path d="M-117.84996365057795,72.5427770372437 L121.7488696006121,65.78967383785137 L121.7488696006121,65.78967383785137 L-3.898905950034683,-138.33245087509468 L-3.898905950034683,-138.33245087509468 L-117.84996365057795,72.5427770372437 Z" fill="none" stroke="black" stroke-width="2" opacity="0.5" />
<path d="M-126.6995038596366,72.50913184445082 L126.14450211346757,73.47042306710445 L126.14450211346757,73.47042306710445 L0.5550017461684957,-145.97955491155489 L0.5550017461684957,-145.97955491155489 L-126.6995038596366,72.50913184445082 Z" fill="none" stroke="white" stroke-width="2" opacity="0.5" />
</g>
</defs>
<rect x="-3464.1016151377544" y="-3464.1016151377544" width="6928.203230275509" height="6928.203230275509" fill="None" />
<use xlink:href="#d0" x="1000.000000000001" y="5196.152422706633" transform="rotate(0.0 1000.000000000001 5196.152422706633)" />
<use xlink:href="#d0" x="3999.999999999999" y="-3464.1016151377553" transform="rotate(-120.00000000000001 3999.999999999999 -3464.1016151377553)" />
<use xlink:href="#d0" x="-2000.000000000001" y="3464.1016151377557" transform="rotate(2.5444437451708134e-14 -2000.000000000001 3464.1016151377557)" />
<use xlink:href="#d0" x="-5000.000000000001" y="1732.050807568879" transform="rotate(0.0 -5000.000000000001 1732.050807568879)" />
<use xlink:href="#d0" x="7000.0" y="-1732.0508075688783" transform="rotate(-120.00000000000001 7000.0 -1732.0508075688783)" />
<use xlink:href="#d0" x="-5000.000000000001" y="-1732.0508075688763" transform="rotate(-2.5444437451708134e-14 -5000.000000000001 -1732.0508075688763)" />
<use xlink:href="#d0" x="7000.0" y="-5196.152422706633" transform="rotate(-119.99999999999999 7000.0 -5196.152422706633)" />
<use xlink:href="#d0" x="-2000.000000000001" y="7.958078640513122e-13" transform="rotate(0.0 -2000.000000000001 7.958078640513122e-13)" />
<use xlink:href="#d0" x="-2000.000000000006" y="-6928.20323027551" transform="rotate(-240.00000000000009 -2000.000000000006 -6928.20323027551)" />
<use xlink:href="#d0" x="-2000.0" y="3464.101615137756" transform="rotate(0.0 -2000.0 3464.101615137756)" />
<use xlink:href="#d0" x="999.9999999999995" y="-1732.0508075688774" transform="rotate(0.0 999.9999999999995 -1732.0508075688774)" />
<use xlink:href="#d0" x="4000.000000000001" y="3464.1016151377553" transform="rotate(-119.99999999999999 4000.000000000001 3464.1016151377553)" />
<use xlink:href="#d0" x="999.9999999999941" y="-8660.254037844388" transform="rotate(-240.00000000000009 999.9999999999941 -8660.254037844388)" />
<use xlink:href="#d0" x="1000.0000000000001" y="1732.0508075688776" transform="rotate(0.0 1000.0000000000001 1732.0508075688776)" />
<use xlink:href="#d0" x="7000.0" y="1732.0508075688772" transform="rotate(-119.99999999999999 7000.0 1732.0508075688772)" />
<use xlink:href="#d0" x="4000.0" y="-1.1368683772161605e-13" transform="rotate(-119.99999999999999 4000.0 -1.1368683772161605e-13)" />
<use xlink:href="#d0" x="-2000.000000000002" y="-3464.101615137755" transform="rotate(-240.00000000000003 -2000.000000000002 -3464.101615137755)" />
<use xlink:href="#d0" x="3999.9999999999995" y="-6928.203230275511" transform="rotate(-239.99999999999997 3999.9999999999995 -6928.203230275511)" />
<use xlink:href="#d0" x="3999.9999999999973" y="-6928.203230275513" transform="rotate(-120.00000000000004 3999.9999999999973 -6928.203230275513)" />
<use xlink:href="#d0" x="999.9999999999978" y="-5196.152422706632" transform="rotate(-240.00000000000003 999.9999999999978 -5196.152422706632)" />
<use xlink:href="#d0" x="4000.0" y="3464.101615137755" transform="rotate(0.0 4000.0 3464.101615137755)" />
<use xlink:href="#d0" x="7000.000000000001" y="-1732.05080756888" transform="rotate(-120.00000000000004 7000.000000000001 -1732.05080756888)" />
<use xlink:href="#d0" x="-5000.000000000005" y="-5196.15242270663" transform="rotate(-240.00000000000003 -5000.000000000005 -5196.15242270663)" />
<use xlink:href="#d0" x="-5000.000000000003" y="-1732.0508075688765" transform="rotate(-240.00000000000003 -5000.000000000003 -1732.0508075688765)" />
<use xlink:href="#d0" x="-2000.0000000000039" y="-6928.203230275505" transform="rotate(-240.00000000000003 -2000.0000000000039 -6928.203230275505)" />
<use xlink:href="#d1" x="5000.000000000001" y="5196.152422706633" transform="rotate(-59.999999999999986 5000.000000000001 5196.152422706633)" />
<use xlink:href="#d1" x="-7000.000000000005" y="-5196.152422706628" transform="rotate(59.99999999999996 -7000.000000000005 -5196.152422706628)" />
<use xlink:href="#d1" x="8000.0" y="-3464.1016151377557" transform="rotate(-59.999999999999986 8000.0 -3464.1016151377557)" />
<use xlink:href="#d1" x="2000.0000000000014" y="6928.203230275511" transform="rotate(-59.99999999999999 2000.0000000000014 6928.203230275511)" />
<use xlink:href="#d1" x="8000.000000000004" y="-2.7284841053187847e-12" transform="rotate(-60.00000000000005 8000.000000000004 -2.7284841053187847e-12)" />
<use xlink:href="#d1" x="1999.9999999999966" y="-6928.2032302755115" transform="rotate(-180.00000000000006 1999.9999999999966 -6928.2032302755115)" />
<use xlink:href="#d1" x="5000.0" y="1732.0508075688772" transform="rotate(-59.99999999999999 5000.0 1732.0508075688772)" />
<use xlink:href="#d1" x="5000.0" y="-8660.254037844388" transform="rotate(-179.99999999999997 5000.0 -8660.254037844388)" />
<use xlink:href="#d1" x="8000.0" y="-3464.101615137756" transform="rotate(-180.0 8000.0 -3464.101615137756)" />
<use xlink:href="#d1" x="-1000.0000000000003" y="1732.0508075688786" transform="rotate(59.999999999999986 -1000.0000000000003 1732.0508075688786)" />
<use xlink:href="#d1" x="1999.9999999999918" y="-10392.304845413266" transform="rotate(-180.00000000000006 1999.9999999999918 -10392.304845413266)" />
<use xlink:href="#d1" x="-4000.000000000001" y="3464.101615137755" transform="rotate(-299.99999999999994 -4000.000000000001 3464.101615137755)" />
<use xlink:href="#d1" x="-4000.000000000005" y="-6928.203230275503" transform="rotate(59.99999999999996 -4000.000000000005 -6928.203230275503)" />
<use xlink:href="#d1" x="-1000.0000000000034" y="-5196.152422706634" transform="rotate(-180.00000000000006 -1000.0000000000034 -5196.152422706634)" />
<use xlink:href="#d1" x="-999.9999999999994" y="5196.152422706633" transform="rotate(60.00000000000001 -999.9999999999994 5196.152422706633)" />
<use xlink:href="#d1" x="-1000.000000000005" y="-8660.254037844383" transform="rotate(-180.00000000000006 -1000.000000000005 -8660.254037844383)" />
<use xlink:href="#d1" x="5000.0" y="-1732.0508075688779" transform="rotate(-180.0 5000.0 -1732.0508075688779)" />
<use xlink:href="#d1" x="-4000.0" y="3464.101615137757" transform="rotate(59.999999999999986 -4000.0 3464.101615137757)" />
<use xlink:href="#d1" x="2000.0" y="1.1368683772161603e-13" transform="rotate(-59.99999999999999 2000.0 1.1368683772161603e-13)" />
<use xlink:href="#d1" x="1999.9999999999984" y="-3464.1016151377544" transform="rotate(-180.0 1999.9999999999984 -3464.1016151377544)" />
<use xlink:href="#d1" x="-7000.000000000002" y="-1732.0508075688742" transform="rotate(59.99999999999996 -7000.000000000002 -1732.0508075688742)" />
<use xlink:href="#d1" x="8000.0" y="-6928.203230275511" transform="rotate(-180.0 8000.0 -6928.203230275511)" />
<use xlink:href="#d1" x="8000.0" y="-9.094947017729282e-13" transform="rotate(-59.99999999999999 8000.0 -9.094947017729282e-13)" />
<use xlink:href="#d1" x="8000.0" y="-4.547473508864641e-13" transform="rotate(-180.0 8000.0 -4.547473508864641e-13)" />
<use xlink:href="#d1" x="4999.999999999995" y="-8660.254037844392" transform="rotate(-180.00000000000009 4999.999999999995 -8660.254037844392)" />
<use xlink:href="#d1" x="5000.000000000001" y="-1732.050807568878" transform="rotate(-60.000000000000036 5000.000000000001 -1732.050807568878)" />
<use xlink:href="#d1" x="-4000.0000000000027" y="-3464.101615137754" transform="rotate(59.999999999999986 -4000.0000000000027 -3464.101615137754)" />
<use xlink:href="#d1" x="-999.9999999999995" y="5196.152422706634" transform="rotate(-59.99999999999999 -999.9999999999995 5196.152422706634)" />
<use xlink:href="#d1" x="-1000.0000000000025" y="-5196.15242270663" transform="rotate(59.99999999999996 -1000.0000000000025 -5196.15242270663)" />
<use xlink:href="#d1" x="-3999.999999999999" y="3464.101615137756" transform="rotate(-60.00000000000005 -3999.999999999999 3464.101615137756)" />
<use xlink:href="#d1" x="-1000.0000000000009" y="-1732.050807568877" transform="rotate(60.00000000000001 -1000.0000000000009 -1732.050807568877)" />
<use xlink:href="#d1" x="-1000.0000000000084" y="-8660.25403784439" transform="rotate(-180.0000000000001 -1000.0000000000084 -8660.25403784439)" />
<use xlink:href="#d1" x="-4000.0000000000073" y="-6928.203230275506" transform="rotate(59.99999999999991 -4000.0000000000073 -6928.203230275506)" />
<use xlink:href="#d1" x="-1000.0000000000016" y="5196.152422706634" transform="rotate(-59.99999999999996 -1000.0000000000016 5196.152422706634)" />
<use xlink:href="#d1" x="5000.0" y="5196.152422706632" transform="rotate(-59.99999999999999 5000.0 5196.152422706632)" />
<use xlink:href="#d1" x="2000.0000000000005" y="3464.1016151377553" transform="rotate(-59.99999999999999 2000.0000000000005 3464.1016151377553)" />
<use xlink:href="#d1" x="8000.0" y="-3464.101615137759" transform="rotate(-180.00000000000006 8000.0 -3464.101615137759)" />
<use xlink:href="#d1" x="-1000.0000000000005" y="1732.0508075688783" transform="rotate(-59.99999999999999 -1000.0000000000005 1732.0508075688783)" />
<use xlink:href="#d1" x="-4000.0000000000064" y="-6928.20323027551" transform="rotate(-180.00000000000009 -4000.0000000000064 -6928.20323027551)" />
<use xlink:href="#d1" x="-7000.000000000001" y="1732.0508075688792" transform="rotate(60.00000000000001 -7000.000000000001 1732.0508075688792)" />
<use xlink:href="#d1" x="8000.0" y="3464.1016151377544" transform="rotate(-59.99999999999999 8000.0 3464.1016151377544)" />
<use xlink:href="#d1" x="-1000.0000000000063" y="-8660.254037844385" transform="rotate(59.99999999999991 -1000.0000000000063 -8660.254037844385)" />
<use xlink:href="#d1" x="-4000.000000000001" y="1.0319593816876636e-12" transform="rotate(60.00000000000001 -4000.000000000001 1.0319593816876636e-12)" />
<use xlink:href="#d1" x="-7000.000000000003" y="-1732.0508075688754" transform="rotate(59.999999999999986 -7000.000000000003 -1732.0508075688754)" />
<use xlink:href="#d1" x="4999.999999999999" y="-5196.152422706633" transform="rotate(-180.0 4999.999999999999 -5196.152422706633)" />
</svg>